<svg xmlns="http://www.w3.org/2000/svg" width="116.026" height="41.635" viewBox="0 0 116.026 41.635">
  <g id="DATAPOSIT_LOGO" data-name="DATAPOSIT LOGO" transform="translate(883.906 383.266)">
    <path id="Path_1" data-name="Path 1" d="M-806.321-351.27v-8.277h3.241q4.111,0,4.111,3.912,0,4.365-4.109,4.365Zm3.241-1.332q2.576,0,2.575-3.033a2.28,2.28,0,0,0-2.576-2.583h-1.708v5.616Z" transform="translate(-25.007 -7.645)" fill="#a1195b"/>
    <path id="Path_2" data-name="Path 2" d="M-792.44-352.118q0-1.811,2.639-1.812a6.71,6.71,0,0,1,1.239.115v-.458q0-.815-1.176-.815a9.6,9.6,0,0,0-2.211.289v-1.216a9.609,9.609,0,0,1,2.211-.289q2.71,0,2.71,2v4.075h-.892l-.545-.543a3.022,3.022,0,0,1-1.748.543Q-792.439-350.225-792.44-352.118Zm2.639-.77q-1.106,0-1.106.752,0,.811.926.81a2.374,2.374,0,0,0,1.418-.474v-.973A6.362,6.362,0,0,0-789.8-352.888Z" transform="translate(-29.481 -8.691)" fill="#a1195b"/>
    <path id="Path_3" data-name="Path 3" d="M-780.7-357.758h1.134l.232.985h1.528v1.216h-1.359v2.8q0,.851.735.851h.625v1.215h-1.366q-1.529,0-1.529-1.637Z" transform="translate(-33.266 -8.222)" fill="#a1195b"/>
    <path id="Path_4" data-name="Path 4" d="M-773.567-352.121q0-1.811,2.64-1.812a6.776,6.776,0,0,1,1.239.115v-.457q0-.816-1.175-.815a9.61,9.61,0,0,0-2.211.289v-1.216a9.616,9.616,0,0,1,2.212-.289q2.709,0,2.71,2v4.075h-.893l-.545-.543a3.023,3.023,0,0,1-1.747.543Q-773.567-350.229-773.567-352.121Zm2.64-.77q-1.1,0-1.1.753,0,.81.926.811a2.372,2.372,0,0,0,1.418-.475v-.972A6.307,6.307,0,0,0-770.927-352.891Z" transform="translate(-35.564 -8.69)" fill="#a1195b"/>
    <path id="Path_5" data-name="Path 5" d="M-761.695-356.059a12.664,12.664,0,0,1,2.559-.249q3.1,0,3.1,2.887,0,3.191-2.883,3.191a2.925,2.925,0,0,1-1.238-.289v2.488h-1.534Zm1.534,4.243a2.526,2.526,0,0,0,1.233.313q1.372,0,1.372-1.928,0-1.639-1.518-1.638a6.2,6.2,0,0,0-1.088.08Z" transform="translate(-39.391 -8.689)" fill="#a1195b"/>
    <path id="Path_6" data-name="Path 6" d="M-750.319-353.279q0-3.057,3.01-3.057t3.01,3.056q0,3.052-3.01,3.052T-750.319-353.279Zm3.011,1.881q1.476,0,1.476-1.906,0-1.858-1.477-1.858t-1.475,1.859Q-748.784-351.4-747.308-351.4Z" transform="translate(-43.058 -8.68)" fill="#a1195b"/>
    <path id="Path_7" data-name="Path 7" d="M-738.114-350.55v-1.273a6.3,6.3,0,0,0,2.339.405q.989,0,.989-.638,0-.607-.665-.608h-1.1a1.624,1.624,0,0,1-1.852-1.824q0-1.91,2.7-1.91a6.614,6.614,0,0,1,2.16.347v1.273a5.881,5.881,0,0,0-2.2-.405q-1.244,0-1.245.637,0,.608.724.607h.984q2.027,0,2.026,1.824,0,1.911-2.581,1.911A7,7,0,0,1-738.114-350.55Z" transform="translate(-46.899 -8.661)" fill="#a1195b"/>
    <path id="Path_8" data-name="Path 8" d="M-725.725-359.559v8.277h-1.534v-8.277Z" transform="translate(-50.491 -7.641)" fill="#a1195b"/>
    <path id="Path_9" data-name="Path 9" d="M-715.684-359.56v1.33h-2.373v6.947h-1.534v-6.947h-2.374v-1.33Z" transform="translate(-52.197 -7.641)" fill="#a1195b"/>
    <path id="Path_10" data-name="Path 10" d="M-873.116-389.354h-3.244a1.831,1.831,0,0,0-1.577,2.006l0,12.054a12.913,12.913,0,0,0-6.575-1.787,12.972,12.972,0,0,0-12.971,12.975,12.973,12.973,0,0,0,12.974,12.971,12.92,12.92,0,0,0,6.443-1.714v2.774a2.5,2.5,0,0,0,.118.762l6.258-38.88A1.6,1.6,0,0,0-873.116-389.354Z" transform="translate(13.575 6.088)" fill="#a1195b"/>
    <path id="Path_11" data-name="Path 11" d="M-849.567-384.783a12.911,12.911,0,0,0-6.443,1.714v-2.774a2.458,2.458,0,0,0-.148-.844l-6.258,38.878a1.628,1.628,0,0,0,1.46,1.245h3.243a1.831,1.831,0,0,0,1.578-2.006l0-12.054a12.918,12.918,0,0,0,6.575,1.788,12.974,12.974,0,0,0,12.971-12.975A12.973,12.973,0,0,0-849.567-384.783Z" transform="translate(-1.604 4.934)" fill="#f19000"/>
  </g>
</svg>
